<svg width="1201" height="15" viewBox="0 0 1201 15" fill="none" xmlns="http://www.w3.org/2000/svg">
<path fill-rule="evenodd" clip-rule="evenodd" d="M630.873 2.43792C630.317 1.94251 629.698 1.56949 629.036 1.33053C628.376 1.08573 627.731 0.960422 627.118 0.960422C625.097 0.960422 623.238 1.48789 621.597 2.52826C619.964 3.5628 618.359 4.69934 616.826 5.90582C615.293 7.1123 613.688 8.23718 612.06 9.25132C610.466 10.2451 608.701 10.7492 606.814 10.7492C606.197 10.7492 605.474 10.6327 604.672 10.4053C604.06 10.2276 603.493 9.93325 602.983 9.52817C603.902 8.95116 604.807 8.30421 605.68 7.60189C606.651 6.81797 607.582 5.99616 608.449 5.15687C609.167 5.45121 609.867 5.71057 610.529 5.93496C611.252 6.17393 612.014 6.29632 612.791 6.29632C613.638 6.29632 614.511 6.09233 615.386 5.68726C616.591 5.12773 616.846 4.03199 616.846 3.2131C616.846 2.56615 616.657 1.68606 615.755 1.16442C615.091 0.788484 614.524 0.604889 614.021 0.604889C613.002 0.604889 611.951 0.870081 610.894 1.39755C609.906 1.88714 608.909 2.52243 607.927 3.28304C607.328 2.99453 606.681 2.73226 606.001 2.50495C605.287 2.26307 604.586 2.14067 603.915 2.14067C602.677 2.14067 601.713 2.54866 601.048 3.35589C600.375 4.17187 600.034 5.15687 600.034 6.28175C600.034 7.27258 600.236 8.12936 600.634 8.83751C600.026 9.13767 599.405 9.40869 598.784 9.64183C598.197 9.86331 597.591 9.99153 596.979 10.0294C596.925 10.0265 596.873 10.0207 596.821 10.0178C596.755 10.0119 596.693 10.0061 596.64 10.0003C596.141 9.94199 595.648 9.82251 595.173 9.64474C594.554 9.41161 593.933 9.14058 593.32 8.84042C593.72 8.13227 593.922 7.2755 593.922 6.28467C593.922 5.15979 593.581 4.17479 592.908 3.35881C592.243 2.55158 591.279 2.14359 590.042 2.14359C589.371 2.14359 588.669 2.26598 587.955 2.50786C587.275 2.73517 586.628 2.99745 586.027 3.28595C585.047 2.52535 584.051 1.89005 583.063 1.40047C582.005 0.872995 580.952 0.604889 579.934 0.604889C579.43 0.604889 578.863 0.788484 578.201 1.16733C577.3 1.68897 577.109 2.56906 577.109 3.21601C577.109 4.0349 577.363 5.13064 578.57 5.69017C579.445 6.09524 580.318 6.29924 581.165 6.29924C581.951 6.29924 582.715 6.15644 583.438 5.87085C584.105 5.60857 584.774 5.33172 585.427 5.0403C586.278 5.82131 587.193 6.6402 588.222 7.54069C589.095 8.29255 590.013 8.96282 590.962 9.53692C590.454 9.93908 589.892 10.2305 589.284 10.4083C588.48 10.6356 587.757 10.7521 587.14 10.7521C585.253 10.7521 583.49 10.248 581.896 9.25424C580.266 8.2401 578.663 7.11521 577.13 5.90874C575.599 4.70517 573.995 3.56863 572.36 2.53118C570.716 1.49081 568.859 0.963336 566.836 0.963336C566.225 0.963336 565.58 1.08865 564.92 1.33053C564.256 1.56949 563.637 1.94251 563.081 2.43792C562.525 2.93334 562.067 3.56863 561.722 4.32341C561.47 4.88061 561.308 5.50921 561.239 6.20015L12.4314 6.20014C12.2665 6.04059 12.1134 5.87649 11.9692 5.72189C11.9501 5.70142 11.9312 5.68112 11.9124 5.66102V5.66393C11.7126 5.8417 10.1601 6.08649 9.26545 6.20306H7.3394C4.64684 5.71056 3.30924 2.41751 2.97485 1.1848C2.61656 2.02992 2.16491 2.87796 1.80445 3.48411C2.52536 4.69059 3.5177 5.42205 4.41667 6.02529V6.14477H3.78696C2.97267 6.14477 1.80445 5.66393 1.08137 4.9383C0.986288 5.10809 0.868466 5.35383 0.739946 5.62188C0.504508 6.11293 0.233173 6.67884 0 6.98989C0.232483 7.30378 0.502 7.8674 0.736894 8.35861C0.866193 8.629 0.985002 8.87745 1.08137 9.05023C1.89348 8.3246 2.97267 7.83792 3.78696 7.83792H4.41667V7.96032C3.5177 8.56356 2.52536 9.28628 1.80445 10.621C2.16491 11.1047 2.61439 11.947 2.88799 12.7979C3.2441 11.4661 4.87049 7.83792 8.1146 7.83792H8.56625C8.83768 7.83792 11.5541 8.07689 11.9124 8.3246C12.0818 8.141 12.2642 7.96032 12.464 7.78256L561.254 7.78256C561.335 8.37787 561.505 8.98369 561.763 9.59229C562.134 10.4665 562.662 11.2388 563.333 11.8858C563.993 12.5327 564.753 13.0864 565.591 13.5265C566.445 13.9752 567.396 14.2026 568.416 14.2026C569.817 14.2026 570.92 13.8208 571.697 13.0689C572.503 12.2908 572.911 11.2796 572.911 10.0586C572.911 8.43535 572.394 7.17933 571.376 6.32255C570.397 5.50075 569.281 5.08402 568.065 5.08402C566.373 5.08402 565.255 5.87376 564.738 7.42995L565.161 7.86708C565.426 7.58149 565.785 7.32212 566.225 7.10064C566.662 6.87916 567.103 6.76842 567.537 6.76842C568.488 6.76842 569.469 7.07442 570.455 7.68057C571.382 8.24884 571.834 8.95116 571.834 9.82251C571.834 10.7929 571.545 11.5011 570.955 11.9878C570.329 12.4977 569.535 12.7571 568.592 12.7571C567.917 12.7571 567.205 12.6027 566.475 12.3025C565.748 12.0052 565.061 11.5623 564.44 10.994C563.819 10.4257 563.307 9.79919 562.92 9.1231C562.545 8.48198 562.365 7.78548 562.365 6.99282C562.365 5.99033 562.664 5.13356 563.283 4.37295C563.902 3.61526 564.862 3.23058 566.13 3.23058C567.902 3.23058 569.58 3.67646 571.124 4.55946C572.698 5.45995 574.32 6.47118 575.942 7.56109C577.58 8.65683 579.319 9.67388 581.113 10.5802C582.915 11.4953 584.943 11.9586 587.14 11.9586C587.976 11.9586 588.871 11.8187 589.798 11.5419C590.686 11.2709 591.492 10.7929 592.193 10.1227C593.501 10.8192 594.788 11.2272 596.026 11.3379V11.3525L596.382 11.3612L596.389 11.3614C596.467 11.3643 596.543 11.367 596.619 11.367C596.732 11.3699 596.862 11.3758 596.97 11.3787H597.029C597.092 11.3787 597.162 11.3758 597.238 11.367C598.688 11.367 600.21 10.9474 601.763 10.1198C602.464 10.79 603.27 11.268 604.158 11.539C605.085 11.8158 605.978 11.9557 606.814 11.9557C609.011 11.9557 611.039 11.4923 612.841 10.5773C614.635 9.67097 616.374 8.65391 618.012 7.55526C619.631 6.46535 621.253 5.45703 622.83 4.55363C624.374 3.67354 626.052 3.22476 627.824 3.22476C629.094 3.22476 630.052 3.60943 630.671 4.36712C631.29 5.12773 631.592 5.9845 631.592 6.98699C631.592 7.76508 631.405 8.48197 631.034 9.11727C630.647 9.78754 630.137 10.417 629.514 10.9853C628.893 11.5535 628.209 11.9965 627.477 12.2938C626.749 12.5968 626.037 12.7484 625.362 12.7484C624.419 12.7484 623.625 12.489 622.999 11.979C622.406 11.4923 622.118 10.7842 622.118 9.81377C622.118 8.9395 622.569 8.2401 623.497 7.67183C624.482 7.06859 625.464 6.75968 626.415 6.75968C626.849 6.75968 627.29 6.87042 627.727 7.0919C628.169 7.31629 628.528 7.57274 628.79 7.85834L629.214 7.42121C628.699 5.86502 627.581 5.07527 625.889 5.07527C624.673 5.07527 623.56 5.492 622.576 6.31381C621.56 7.17058 621.043 8.42661 621.043 10.0498C621.043 11.2709 621.451 12.2821 622.257 13.0602C623.032 13.812 624.135 14.1938 625.538 14.1938C626.5 14.1938 627.433 13.9665 628.313 13.5206C629.181 13.0806 629.959 12.5298 630.619 11.8799C631.292 11.2301 631.82 10.4578 632.191 9.58354C632.447 8.97755 632.617 8.37568 632.698 7.78546H1187.73C1187.89 7.94513 1188.04 8.10935 1188.19 8.26405L1188.25 8.32459C1188.51 8.08562 1191.23 7.72135 1191.5 7.72135H1192.13C1195.29 7.72135 1196.82 11.4719 1197.18 12.8008C1197.54 11.9557 1197.99 11.1077 1198.35 10.5015C1197.63 9.29502 1196.64 8.56355 1195.74 7.96031V7.84083H1196.37C1197.19 7.84083 1198.35 8.32167 1199.08 9.04731C1199.17 8.87749 1199.29 8.6317 1199.42 8.36361C1199.65 7.87259 1199.92 7.30674 1200.16 6.99571C1199.93 6.68202 1199.66 6.11889 1199.42 5.62789L1199.42 5.6273V5.62699C1199.29 5.3566 1199.17 5.10815 1199.08 4.93537C1198.26 5.66101 1197.19 6.14768 1196.37 6.14768H1195.74V6.02528C1196.64 5.42204 1197.63 4.69932 1198.35 3.36462C1197.99 2.88086 1197.54 2.03866 1197.27 1.18771C1196.91 2.5195 1195.29 6.14768 1192.04 6.14768H1191.59C1191.32 6.14768 1188.6 5.90872 1188.25 5.66101C1188.08 5.8446 1187.89 6.02528 1187.69 6.20305H632.716C632.648 5.50753 632.486 4.875 632.232 4.31467C631.887 3.55989 631.429 2.92459 630.873 2.42918V2.43792ZM611.801 2.66814C612.613 2.18147 613.391 1.93376 614.109 1.93376C615.347 1.93376 615.506 2.74391 615.506 3.45206C615.506 3.74348 615.434 4.16604 614.809 4.46329C614.259 4.72266 613.582 4.85379 612.791 4.85379C612.168 4.85379 611.554 4.75763 610.965 4.57112C610.538 4.43415 610.136 4.29427 609.754 4.15147C610.44 3.57737 611.126 3.07905 611.803 2.67106L611.801 2.66814ZM582.991 4.57112C582.402 4.76054 581.788 4.85379 581.165 4.85379C580.374 4.85379 579.697 4.72266 579.145 4.46329C578.52 4.16896 578.448 3.7464 578.448 3.45498C578.448 2.74974 578.607 1.93668 579.844 1.93668C580.563 1.93668 581.341 2.18439 582.151 2.66814C582.828 3.07905 583.514 3.57446 584.2 4.15147C583.818 4.29427 583.419 4.43415 582.989 4.57112H582.991ZM592.2 8.09147C591.284 7.5028 590.4 6.85002 589.575 6.15061C588.847 5.5328 588.085 4.92956 587.297 4.35255C587.722 4.16604 588.135 4.00285 588.528 3.87171C589.095 3.68229 589.694 3.5832 590.309 3.5832C591.049 3.5832 591.648 3.88628 592.094 4.48078C592.541 5.08402 592.76 5.71057 592.76 6.40124C592.76 7.0919 592.578 7.63394 592.202 8.09147H592.2ZM601.754 8.09147C601.381 7.63394 601.198 7.07733 601.198 6.40124C601.198 5.72514 601.415 5.0811 601.865 4.48078C602.314 3.87754 602.898 3.5832 603.648 3.5832C604.262 3.5832 604.861 3.67937 605.428 3.86879C605.821 4.00285 606.234 4.16313 606.659 4.34964C605.873 4.92665 605.109 5.52989 604.382 6.1477C603.552 6.85294 602.668 7.50572 601.754 8.08856V8.09147Z" fill="url(#paint0_linear_33_246)"/>
<defs>
<linearGradient id="paint0_linear_33_246" x1="0" y1="7.40801" x2="1200.16" y2="7.40801" gradientUnits="userSpaceOnUse">
<stop stop-color="#78CBEE"/>
<stop offset="0.035314" stop-color="#73C3E9"/>
<stop offset="0.2552" stop-color="#5797CC"/>
<stop offset="0.4674" stop-color="#4175B6"/>
<stop offset="0.6674" stop-color="#325CA6"/>
<stop offset="0.8502" stop-color="#284D9C"/>
<stop offset="1" stop-color="#254899"/>
</linearGradient>
</defs>
</svg>
