<svg width="1440" height="1080" viewBox="0 0 1440 1080" fill="none" xmlns="http://www.w3.org/2000/svg">
<g opacity="0.1">
<path fill-rule="evenodd" clip-rule="evenodd" d="M3.55115 839.852V713.785L149.149 839.852H3.55115Z" fill="#78CBEE"/>
<path fill-rule="evenodd" clip-rule="evenodd" d="M1440 839.852V713.785L1289.08 839.852H1440Z" fill="#78CBEE"/>
<path fill-rule="evenodd" clip-rule="evenodd" d="M721.776 701.356L575.29 827.423H868.261L721.776 701.356Z" fill="#78CBEE"/>
<path fill-rule="evenodd" clip-rule="evenodd" d="M0 23.0476V170.719C0 173.639 1.25217 176.977 3.75652 179.062L61.7739 230.789C66.7826 235.378 66.7826 242.887 61.7739 247.475L3.75652 296.282C1.25217 298.368 0 301.705 0 304.625V588.288C0 591.208 1.25217 594.128 3.33913 596.214L243.757 822.727C245.843 824.813 248.765 825.647 251.27 825.647H477.913C480.835 825.647 483.757 824.396 485.843 822.31L714.991 595.797C717.078 593.711 720 592.46 722.922 592.46H731.687C734.609 592.46 737.53 593.711 740.035 595.797L953.739 821.476C955.826 823.562 958.748 824.813 962.087 824.813H1191.23C1194.16 824.813 1197.08 823.562 1199.17 821.893L1436.66 595.38C1438.75 593.294 1440 590.374 1440 587.454V303.791C1440 301.288 1439.17 298.368 1437.08 296.282L1392 246.224C1388.24 242.052 1388.24 235.795 1392 231.623L1437.5 178.645C1439.17 176.559 1440 174.057 1440 171.554V22.2133C1440 12.2017 1427.9 7.61302 1420.8 14.2874L1203.34 231.206C1199.17 235.378 1199.17 242.469 1203.34 246.641L1359.44 403.073C1363.62 407.244 1363.62 414.336 1359.44 418.925L1075.62 690.073C1071.03 694.245 1063.93 694.245 1059.76 689.656L801.391 414.336C799.304 412.25 798.47 409.747 798.47 406.827V395.147C798.47 392.227 799.722 389.307 801.809 387.221L949.565 246.641C954.156 242.469 954.157 235.378 949.983 231.206L726.678 3.4415C722.087 -1.14717 714.991 -1.14717 710.4 3.4415L490.435 230.789C486.261 235.378 486.261 242.469 491.27 246.641L653.217 387.221C655.722 389.307 656.974 392.227 656.974 395.564V406.827C656.974 409.747 655.722 412.667 653.635 414.753L375.652 694.662C373.565 696.747 370.643 697.999 367.722 697.999H353.53C350.609 697.999 347.687 696.747 345.6 694.662L74.2956 414.753C72.2087 412.667 71.3739 410.164 71.3739 407.244V395.564C71.3739 392.644 72.6261 389.724 74.713 387.638L224.974 247.058C229.565 242.887 229.565 235.795 225.391 231.623L19.2 15.5389C12.5217 8.03017 0 13.036 0 23.0476Z" fill="#78CBEE"/>
<path d="M1440 974.797H3.55115V1079.56H1440V974.797Z" fill="#78CBEE"/>
<path d="M1436.45 889.568H3.55115V930.407H1436.45V889.568Z" fill="#78CBEE"/>
<path d="M1159.67 410.845L1069.99 321.17C1067.91 319.084 1064.57 319.084 1062.49 321.17L972.81 410.845C970.724 412.931 970.724 416.268 972.81 418.353L1062.49 508.029C1064.57 510.115 1067.91 510.115 1069.99 508.029L1159.67 418.353C1161.75 416.268 1161.75 412.931 1159.67 410.845Z" fill="#78CBEE"/>
<path d="M449.435 410.845L359.759 321.17C357.673 319.084 354.337 319.084 352.251 321.17L262.575 410.845C260.49 412.931 260.49 416.268 262.575 418.353L352.251 508.029C354.337 510.115 357.673 510.115 359.759 508.029L449.435 418.353C451.52 416.268 451.52 412.931 449.435 410.845Z" fill="#78CBEE"/>
</g>
</svg>
