<svg width="31" height="30" viewBox="0 0 31 30" fill="none" xmlns="http://www.w3.org/2000/svg">
<g clip-path="url(#clip0_9_1491)">
<path d="M30.7442 12.4106C29.9085 7.92956 27.5246 4.50205 23.6542 2.11508C21.683 0.909469 19.4487 0.200143 17.1431 0.0479792C17.0668 0.0369884 16.9913 0.0209603 16.9172 0L15.043 0C14.5032 0.0749675 13.9614 0.132942 13.4247 0.226902C9.96318 0.826642 7.06643 2.46093 4.73844 5.0838C2.60836 7.48376 1.3689 10.2955 1.06403 13.4942C0.687195 17.4714 1.70675 21.0809 4.18568 24.2295C6.6846 27.4091 9.97217 29.2803 13.9814 29.8561C19.8789 30.7037 25.9173 27.757 28.906 22.6012C30.0624 20.6357 30.7544 18.4318 30.9291 16.158C30.94 16.0813 30.9564 16.0055 30.9781 15.9311V14.0579C30.8981 13.5081 30.8451 12.9544 30.7442 12.4106ZM24.4639 19.2547C24.264 21.5816 22.5807 23.3059 20.2577 23.4698C18.3915 23.5998 16.5133 23.5898 14.6411 23.5898C13.5506 23.5898 12.4481 23.5718 11.3726 23.4179C9.2065 23.108 7.71315 21.4807 7.49225 19.3016C7.42482 18.6811 7.38879 18.0576 7.38429 17.4334C7.38429 15.3933 7.39029 13.3532 7.44327 11.3141C7.46178 10.7197 7.56787 10.1313 7.75813 9.56785C8.33188 7.85959 9.57434 6.87702 11.3266 6.56915C12.0585 6.44988 12.7991 6.39236 13.5406 6.39723C15.5697 6.39023 17.5999 6.41422 19.63 6.44321C20.394 6.44481 21.1489 6.60976 21.844 6.927C23.4433 7.67767 24.3 8.9911 24.4579 10.7104C24.5888 12.1357 24.5808 13.5751 24.6338 14.9975C24.5768 16.4289 24.5768 17.8463 24.4639 19.2547Z" fill="white"/>
<path d="M22.9376 11.112C22.8876 9.26481 21.7121 8.08632 19.8729 8.03734C17.274 7.96737 14.6705 7.96737 12.0623 8.03734C10.2631 8.08532 9.12358 9.2768 9.01462 11.078C8.93666 12.3775 8.93166 13.6709 8.89368 14.9923C8.93166 16.2918 8.93266 17.6242 9.01962 18.9466C9.10359 20.2121 9.65835 21.2356 10.9118 21.6894C11.4721 21.8869 12.061 21.9913 12.655 21.9983C14.8691 22.0343 17.0841 22.0293 19.2992 21.9983C19.8451 21.9941 20.3872 21.9079 20.9075 21.7424C22.2329 21.3066 22.8976 20.276 22.9306 18.9486C22.9966 16.3397 23.0066 13.7229 22.9376 11.112ZM15.9606 19.4084C15.0874 19.4047 14.235 19.1423 13.5108 18.6543C12.7867 18.1664 12.2234 17.4749 11.892 16.667C11.5607 15.8592 11.4761 14.9712 11.649 14.1153C11.822 13.2595 12.2446 12.474 12.8637 11.8582C13.4827 11.2424 14.2703 10.8238 15.1271 10.6553C15.9839 10.4868 16.8713 10.576 17.6775 10.9115C18.4836 11.2471 19.1722 11.814 19.6564 12.5407C20.1405 13.2673 20.3985 14.1212 20.3977 14.9943C20.3982 15.5763 20.2837 16.1526 20.0607 16.6901C19.8376 17.2276 19.5105 17.7157 19.0981 18.1263C18.6858 18.5369 18.1963 18.8619 17.6578 19.0827C17.1193 19.3034 16.5425 19.4154 15.9606 19.4124V19.4084ZM20.6016 11.4209C20.3975 11.4266 20.1962 11.3715 20.0236 11.2624C19.8509 11.1534 19.7146 10.9955 19.632 10.8087C19.5494 10.6219 19.5243 10.4148 19.5598 10.2137C19.5954 10.0126 19.69 9.82661 19.8316 9.67947C19.9732 9.53233 20.1554 9.43068 20.355 9.38747C20.5546 9.34425 20.7625 9.36143 20.9523 9.43681C21.1421 9.5122 21.3052 9.64237 21.4207 9.81076C21.5363 9.97915 21.5991 10.1781 21.6012 10.3823C21.6045 10.5165 21.5812 10.6501 21.5327 10.7753C21.4842 10.9004 21.4113 11.0148 21.3184 11.1117C21.2255 11.2086 21.1143 11.2862 20.9913 11.3399C20.8683 11.3937 20.7358 11.4225 20.6016 11.4249V11.4209Z" fill="white"/>
<path d="M18.8493 14.9937C18.8496 15.5617 18.6815 16.1169 18.3662 16.5893C18.0508 17.0616 17.6024 17.4297 17.0777 17.647C16.553 17.8644 15.9756 17.9211 15.4187 17.8102C14.8617 17.6992 14.3502 17.4254 13.9489 17.0235C13.5476 16.6217 13.2745 16.1098 13.1643 15.5527C13.0541 14.9955 13.1117 14.4182 13.3297 13.8938C13.5478 13.3694 13.9165 12.9215 14.3893 12.6068C14.8621 12.2921 15.4176 12.1248 15.9855 12.126C16.7449 12.1286 17.4724 12.4317 18.009 12.9691C18.5456 13.5064 18.8477 14.2343 18.8493 14.9937Z" fill="white"/>
</g>
<defs>
<clipPath id="clip0_9_1491">
<rect width="29.987" height="30" fill="white" transform="translate(0.987061)"/>
</clipPath>
</defs>
</svg>
