<svg width="186" height="50" viewBox="0 0 186 50" fill="none" xmlns="http://www.w3.org/2000/svg">
<g clip-path="url(#clip0_33_255)">
<path fill-rule="evenodd" clip-rule="evenodd" d="M0.693481 38.8781V33.0754L7.46331 38.8781H0.693481Z" fill="url(#paint0_linear_33_255)"/>
<path fill-rule="evenodd" clip-rule="evenodd" d="M67.2312 38.8781V33.0754L60.2679 38.8781H67.2312Z" fill="url(#paint1_linear_33_255)"/>
<path fill-rule="evenodd" clip-rule="evenodd" d="M33.9623 32.4952L27.1925 38.2979H40.7322L33.9623 32.4952Z" fill="url(#paint2_linear_33_255)"/>
<path fill-rule="evenodd" clip-rule="evenodd" d="M0.5 1.06384V7.91104C0.5 8.04644 0.558027 8.20117 0.674081 8.29789L3.36267 10.6963C3.59478 10.9091 3.59478 11.2573 3.36267 11.47L0.674081 13.7331C0.558027 13.8298 0.5 13.9845 0.5 14.1199V27.2727C0.5 27.4081 0.558027 27.5435 0.654739 27.6402L11.7959 38.1431C11.8927 38.2399 12.028 38.2785 12.1441 38.2785H22.647C22.7824 38.2785 22.9178 38.2205 23.0145 38.1238L33.6335 27.6209C33.7302 27.5242 33.8656 27.4662 34.001 27.4662H34.4072C34.5426 27.4662 34.678 27.5242 34.794 27.6209L44.6973 38.0851C44.794 38.1818 44.9294 38.2399 45.0841 38.2399H55.7031C55.8385 38.2399 55.9739 38.1818 56.0706 38.1045L67.0764 27.6016C67.1731 27.5048 67.2311 27.3695 67.2311 27.2341V14.0813C67.2311 13.9652 67.1925 13.8298 67.0957 13.7331L65.0068 11.412C64.8327 11.2186 64.8327 10.9284 65.0068 10.735L67.1151 8.27854C67.1925 8.18183 67.2311 8.06578 67.2311 7.94972V1.02516C67.2311 0.560942 66.6702 0.348176 66.3414 0.657654L56.264 10.7157C56.0706 10.9091 56.0706 11.2379 56.264 11.4313L63.4981 18.6847C63.6915 18.8782 63.6915 19.207 63.4981 19.4197L50.3453 31.9923C50.1325 32.1857 49.8037 32.1857 49.6103 31.9729L37.6373 19.207C37.5406 19.1103 37.5019 18.9942 37.5019 18.8588V18.3172C37.5019 18.1818 37.56 18.0464 37.6567 17.9497L44.5039 11.4313C44.7166 11.2379 44.7166 10.9091 44.5232 10.7157L34.175 0.154753C33.9623 -0.0580133 33.6335 -0.0580133 33.4207 0.154753L23.2273 10.6963C23.0338 10.9091 23.0338 11.2379 23.266 11.4313L30.7708 17.9497C30.8868 18.0464 30.9449 18.1818 30.9449 18.3366V18.8588C30.9449 18.9942 30.8868 19.1296 30.7901 19.2263L17.9081 32.205C17.8114 32.3018 17.676 32.3598 17.5406 32.3598H16.883C16.7476 32.3598 16.6122 32.3018 16.5155 32.205L3.94294 19.2263C3.84623 19.1296 3.80754 19.0136 3.80754 18.8782V18.3366C3.80754 18.2012 3.86557 18.0658 3.96228 17.9691L10.9255 11.4507C11.1383 11.2573 11.1383 10.9284 10.9449 10.735L1.38975 0.715681C1.08027 0.367519 0.5 0.599627 0.5 1.06384Z" fill="url(#paint3_linear_33_255)"/>
<path d="M67.2312 45.1644H0.693481V50H67.2312V45.1644Z" fill="url(#paint4_linear_33_255)"/>
<path d="M76.2641 17.1374H82.2989L83.4594 19.9227H86.6122L80.8095 6.92459H77.8308L72.0281 19.9227H75.1035L76.2641 17.1374ZM79.2815 9.88397L81.3511 14.855H77.2312L79.2815 9.88397Z" fill="#254899"/>
<path d="M89.2621 18.2592C89.9004 18.8588 90.6354 19.3424 91.4865 19.6712C92.3569 20 93.2853 20.1547 94.2911 20.1547C95.4323 20.1547 96.4575 19.9613 97.3472 19.5551C98.2563 19.1683 99.03 18.588 99.6489 17.8337L97.7147 16.0542C97.2698 16.5764 96.7669 16.9633 96.2253 17.2147C95.6838 17.4662 95.0841 17.5822 94.4458 17.5822C93.8462 17.5822 93.2853 17.4855 92.7824 17.2921C92.2795 17.0986 91.8346 16.8085 91.4671 16.441C91.0996 16.0735 90.8095 15.6286 90.5967 15.1257C90.4033 14.6228 90.3066 14.0619 90.3066 13.4429C90.3066 12.824 90.4033 12.2631 90.5967 11.7602C90.8095 11.2573 91.0996 10.8124 91.4671 10.4449C91.8346 10.0774 92.2795 9.78724 92.7824 9.59381C93.2853 9.40039 93.8462 9.30368 94.4458 9.30368C95.0841 9.30368 95.6838 9.43908 96.2253 9.69053C96.7669 9.94198 97.2698 10.3095 97.7147 10.8317L99.6489 9.05223C99.03 8.29788 98.2563 7.73695 97.3472 7.3501C96.4381 6.96325 95.4323 6.75049 94.3104 6.75049C93.3046 6.75049 92.3569 6.92457 91.5058 7.25339C90.6547 7.58221 89.9004 8.04643 89.2621 8.64604C88.6238 9.24565 88.1402 9.96132 87.7727 10.7737C87.4246 11.5861 87.2505 12.4952 87.2505 13.4623C87.2505 14.4487 87.4246 15.3385 87.7727 16.1509C88.1209 16.9246 88.6238 17.6402 89.2621 18.2592Z" fill="#254899"/>
<path d="M112.763 8.60737C112.125 8.00776 111.39 7.5242 110.519 7.19538C109.668 6.86656 108.721 6.69247 107.695 6.69247C106.69 6.69247 105.742 6.86656 104.871 7.19538C104.001 7.5242 103.247 8.00776 102.608 8.60737C101.97 9.20698 101.467 9.92265 101.1 10.735C100.751 11.5474 100.577 12.4372 100.577 13.4043C100.577 14.3714 100.751 15.2611 101.1 16.0735C101.467 16.8859 101.951 17.6016 102.589 18.2012C103.227 18.8008 103.982 19.2844 104.852 19.6132C105.722 19.942 106.69 20.1161 107.715 20.1161C108.721 20.1161 109.668 19.942 110.519 19.6132C111.39 19.2844 112.144 18.8201 112.763 18.2205C113.401 17.6209 113.904 16.9052 114.272 16.0929C114.639 15.2611 114.813 14.3714 114.813 13.4043C114.813 12.4178 114.639 11.5281 114.272 10.735C113.904 9.94199 113.401 9.22632 112.763 8.60737ZM111.448 15.1064C111.254 15.6093 110.964 16.0542 110.597 16.4217C110.229 16.7892 109.784 17.0793 109.301 17.2727C108.817 17.4662 108.295 17.5629 107.695 17.5629C107.096 17.5629 106.574 17.4662 106.071 17.2727C105.568 17.0793 105.142 16.7892 104.775 16.4217C104.407 16.0542 104.136 15.6093 103.924 15.1064C103.73 14.5842 103.633 14.0232 103.633 13.4236C103.633 12.8047 103.73 12.2437 103.924 11.7408C104.136 11.2379 104.427 10.7931 104.794 10.4256C105.162 10.058 105.587 9.76791 106.071 9.57449C106.574 9.38106 107.096 9.28435 107.695 9.28435C108.295 9.28435 108.817 9.38106 109.32 9.57449C109.823 9.76791 110.249 10.058 110.597 10.4256C110.964 10.7931 111.254 11.2379 111.448 11.7408C111.661 12.2437 111.757 12.8047 111.757 13.4236C111.757 14.0426 111.641 14.6035 111.448 15.1064Z" fill="#254899"/>
<path d="M127.986 19.9227V22.6693H130.751V17.4662H128.895V6.92459H125.897V17.4662H120.113V6.92459H117.115V19.9227H125.897H127.986Z" fill="#254899"/>
<path d="M135.722 6.92459H132.724V19.9227H135.722V6.92459Z" fill="#254899"/>
<path d="M141.719 17.1374H147.753L148.914 19.9227H152.067L146.264 6.92459H143.285L137.483 19.9227H140.558L141.719 17.1374ZM144.736 9.88397L146.806 14.855H142.666L144.736 9.88397Z" fill="#254899"/>
<path d="M164.639 19.9227V22.6693H167.405V17.4662H165.548V6.92459H162.57V17.4662H156.767V6.92459H153.788V19.9227H162.57H164.639Z" fill="#254899"/>
<path d="M172.396 6.92459H169.397V19.9227H172.396V6.92459Z" fill="#254899"/>
<path d="M180.384 6.92459C179.243 6.92459 178.256 7.11801 177.405 7.50486C176.554 7.89171 175.916 8.45264 175.432 9.16831C174.968 9.88397 174.736 10.7544 174.736 11.7602C174.736 12.7466 174.949 13.5784 175.394 14.294C175.838 15.0097 176.457 15.5319 177.27 15.9188C177.347 15.9575 177.425 15.9768 177.502 16.0155L174.794 19.9227H177.966L180.268 16.4604H183.014V19.9227H185.993V6.92459H180.384ZM178.488 9.96134C178.953 9.57449 179.61 9.36173 180.461 9.36173H183.014V14.0813H180.384C179.533 14.0813 178.914 13.8685 178.469 13.4623C178.024 13.0561 177.811 12.4758 177.811 11.7215C177.831 10.9478 178.044 10.3675 178.488 9.96134Z" fill="#254899"/>
<path d="M85.1809 29.5551H82.0088L78.6045 34.8163H76.4382V29.5551H73.4595V42.5532H76.4382V37.3114H78.5078L81.8927 42.5532H85.3163L80.945 35.8414L85.1809 29.5551Z" fill="#254899"/>
<path d="M97.9468 31.2379C97.3085 30.6383 96.5735 30.1547 95.7031 29.8259C94.852 29.4971 93.9042 29.323 92.8791 29.323C91.8733 29.323 90.9255 29.4971 90.0551 29.8259C89.1847 30.1547 88.4304 30.6383 87.7921 31.2379C87.1538 31.8375 86.6509 32.5532 86.2834 33.3656C85.9352 34.178 85.7611 35.0677 85.7611 36.0348C85.7611 37.0019 85.9352 37.8917 86.2834 38.7041C86.6509 39.5165 87.1344 40.2321 87.7727 40.8317C88.411 41.4313 89.1654 41.9149 90.0358 42.2437C90.9062 42.5725 91.8733 42.7466 92.8984 42.7466C93.9042 42.7466 94.852 42.5725 95.7031 42.2437C96.5735 41.9149 97.3278 41.4507 97.9468 40.8511C98.5851 40.2515 99.088 39.5358 99.4555 38.7234C99.823 37.8917 99.9971 37.0019 99.9971 36.0348C99.9971 35.0484 99.823 34.1586 99.4555 33.3656C99.088 32.5725 98.5851 31.8569 97.9468 31.2379ZM96.6315 37.737C96.4381 38.2399 96.148 38.6847 95.7805 39.0522C95.4129 39.4197 94.9681 39.7099 94.4845 39.9033C94.001 40.0967 93.4787 40.1934 92.8791 40.1934C92.2795 40.1934 91.7572 40.0967 91.2543 39.9033C90.7514 39.7099 90.3259 39.4197 89.9584 39.0522C89.5909 38.6847 89.3201 38.2399 89.1073 37.737C88.9139 37.2147 88.8172 36.6538 88.8172 36.0542C88.8172 35.4352 88.9139 34.8743 89.1073 34.3714C89.3201 33.8685 89.6102 33.4236 89.9777 33.0561C90.3453 32.6886 90.7708 32.3985 91.2543 32.205C91.7572 32.0116 92.2795 31.9149 92.8791 31.9149C93.4787 31.9149 94.001 32.0116 94.5039 32.205C95.0068 32.3985 95.4323 32.6886 95.7805 33.0561C96.148 33.4236 96.4381 33.8685 96.6315 34.3714C96.8443 34.8743 96.941 35.4352 96.941 36.0542C96.941 36.6731 96.8443 37.2341 96.6315 37.737Z" fill="#254899"/>
<path d="M110.945 30.1354C110.094 29.7486 109.107 29.5551 107.927 29.5551H102.299V42.5532H105.316V38.9749H107.927C109.088 38.9749 110.094 38.7815 110.945 38.4139C111.796 38.0271 112.434 37.4855 112.898 36.7892C113.363 36.0929 113.595 35.2418 113.595 34.2747C113.595 33.2882 113.363 32.4565 112.898 31.7408C112.434 31.0445 111.777 30.5029 110.945 30.1354ZM109.842 35.9188C109.378 36.3056 108.682 36.5184 107.753 36.5184H105.297V32.0116H107.753C108.682 32.0116 109.378 32.205 109.842 32.6112C110.307 32.9981 110.539 33.559 110.539 34.2747C110.519 34.971 110.307 35.5319 109.842 35.9188Z" fill="#254899"/>
<path d="M127.018 31.2379C126.38 30.6383 125.645 30.1547 124.775 29.8259C123.924 29.4971 122.976 29.323 121.951 29.323C120.945 29.323 119.997 29.4971 119.127 29.8259C118.256 30.1547 117.502 30.6383 116.864 31.2379C116.225 31.8375 115.723 32.5532 115.355 33.3656C115.007 34.178 114.833 35.0677 114.833 36.0348C114.833 37.0019 115.007 37.8917 115.355 38.7041C115.723 39.5165 116.206 40.2321 116.844 40.8317C117.483 41.4313 118.237 41.9149 119.107 42.2437C119.978 42.5725 120.945 42.7466 121.97 42.7466C122.976 42.7466 123.924 42.5725 124.775 42.2437C125.645 41.9149 126.399 41.4507 127.018 40.8511C127.657 40.2515 128.16 39.5358 128.527 38.7234C128.895 37.8917 129.069 37.0019 129.069 36.0348C129.069 35.0484 128.895 34.1586 128.527 33.3656C128.16 32.5725 127.657 31.8569 127.018 31.2379ZM125.684 37.737C125.49 38.2399 125.2 38.6847 124.833 39.0522C124.465 39.4197 124.02 39.7099 123.537 39.9033C123.053 40.0967 122.531 40.1934 121.931 40.1934C121.332 40.1934 120.81 40.0967 120.307 39.9033C119.804 39.7099 119.378 39.4197 119.011 39.0522C118.643 38.6847 118.372 38.2399 118.16 37.737C117.966 37.2147 117.87 36.6538 117.87 36.0542C117.87 35.4352 117.966 34.8743 118.16 34.3714C118.372 33.8685 118.663 33.4236 119.03 33.0561C119.398 32.6886 119.823 32.3985 120.307 32.205C120.81 32.0116 121.332 31.9149 121.931 31.9149C122.531 31.9149 123.053 32.0116 123.556 32.205C124.059 32.3985 124.485 32.6886 124.833 33.0561C125.2 33.4236 125.49 33.8685 125.684 34.3714C125.897 34.8743 125.993 35.4352 125.993 36.0542C126.013 36.6731 125.897 37.2341 125.684 37.737Z" fill="#254899"/>
<path d="M132.415 34.8356C132.376 35.9575 132.299 36.9052 132.183 37.6789C132.067 38.4526 131.854 39.0522 131.564 39.4778C131.274 39.884 130.887 40.0967 130.384 40.0967C130.191 40.0967 130.016 40.0774 129.842 40.0194L129.649 42.5726C129.939 42.6306 130.191 42.6886 130.423 42.7273C130.674 42.766 130.906 42.7853 131.119 42.7853C131.873 42.7853 132.492 42.6112 132.995 42.2437C133.498 41.8762 133.885 41.354 134.156 40.6577C134.426 39.9613 134.659 39.1296 134.794 38.1238C134.929 37.1374 135.026 35.9962 135.045 34.7196L135.142 32.0116H139.61V42.5532H142.589V29.5551H132.608L132.415 34.8356Z" fill="#254899"/>
<path d="M148.837 37.1373H154.871V34.7969H148.837V31.9729H155.664V29.5551H145.839V42.5532H155.897V40.1354H148.837V37.1373Z" fill="#254899"/>
<path d="M168.585 36.3637C168.237 36.1122 167.831 35.9188 167.347 35.7834C167.579 35.6673 167.792 35.5513 167.986 35.3965C168.779 34.7969 169.165 33.9652 169.165 32.9014C169.165 31.8182 168.74 30.9865 167.908 30.4062C167.076 29.8259 165.897 29.5358 164.388 29.5358H158.334V42.5532H164.736C166.38 42.5532 167.637 42.2244 168.488 41.5861C169.359 40.9284 169.784 40.0387 169.784 38.8975C169.784 37.795 169.398 36.9439 168.585 36.3637ZM161.332 31.7795H164.136C164.794 31.7795 165.297 31.9149 165.626 32.1857C165.955 32.4372 166.129 32.8433 166.129 33.3462C166.129 33.8685 165.955 34.2553 165.626 34.5261C165.297 34.7776 164.794 34.913 164.136 34.913H161.332V31.7795ZM166.206 39.9226C165.839 40.1934 165.316 40.3288 164.62 40.3288H161.312V37.0406H164.62C165.316 37.0406 165.839 37.176 166.206 37.4468C166.574 37.6983 166.748 38.1045 166.748 38.646C166.748 39.2263 166.574 39.6519 166.206 39.9226Z" fill="#254899"/>
<path d="M67.0378 41.1992H0.693481V43.1335H67.0378V41.1992Z" fill="url(#paint5_linear_33_255)"/>
<path d="M54.2137 18.9942L50.0551 14.8356C49.9584 14.7389 49.8037 14.7389 49.707 14.8356L45.5484 18.9942C45.4517 19.0909 45.4517 19.2457 45.5484 19.3424L49.707 23.501C49.8037 23.5977 49.9584 23.5977 50.0551 23.501L54.2137 19.3424C54.3105 19.2457 54.3105 19.0909 54.2137 18.9942Z" fill="url(#paint6_linear_33_255)"/>
<path d="M21.3704 18.9942L17.2118 14.8356C17.115 14.7389 16.9603 14.7389 16.8636 14.8356L12.705 18.9942C12.6083 19.0909 12.6083 19.2457 12.705 19.3424L16.8636 23.501C16.9603 23.5977 17.115 23.5977 17.2118 23.501L21.3704 19.3424C21.4671 19.2457 21.4671 19.0909 21.3704 18.9942Z" fill="url(#paint7_linear_33_255)"/>
</g>
<defs>
<linearGradient id="paint0_linear_33_255" x1="0.693481" y1="35.9768" x2="7.46331" y2="35.9768" gradientUnits="userSpaceOnUse">
<stop stop-color="#78CBEE"/>
<stop offset="0.035314" stop-color="#73C3E9"/>
<stop offset="0.2552" stop-color="#5797CC"/>
<stop offset="0.4674" stop-color="#4175B6"/>
<stop offset="0.6674" stop-color="#325CA6"/>
<stop offset="0.8502" stop-color="#284D9C"/>
<stop offset="1" stop-color="#254899"/>
</linearGradient>
<linearGradient id="paint1_linear_33_255" x1="60.2679" y1="35.9768" x2="67.2312" y2="35.9768" gradientUnits="userSpaceOnUse">
<stop stop-color="#78CBEE"/>
<stop offset="0.035314" stop-color="#73C3E9"/>
<stop offset="0.2552" stop-color="#5797CC"/>
<stop offset="0.4674" stop-color="#4175B6"/>
<stop offset="0.6674" stop-color="#325CA6"/>
<stop offset="0.8502" stop-color="#284D9C"/>
<stop offset="1" stop-color="#254899"/>
</linearGradient>
<linearGradient id="paint2_linear_33_255" x1="27.1925" y1="35.3965" x2="40.7322" y2="35.3965" gradientUnits="userSpaceOnUse">
<stop stop-color="#78CBEE"/>
<stop offset="0.035314" stop-color="#73C3E9"/>
<stop offset="0.2552" stop-color="#5797CC"/>
<stop offset="0.4674" stop-color="#4175B6"/>
<stop offset="0.6674" stop-color="#325CA6"/>
<stop offset="0.8502" stop-color="#284D9C"/>
<stop offset="1" stop-color="#254899"/>
</linearGradient>
<linearGradient id="paint3_linear_33_255" x1="0.5" y1="19.1489" x2="67.2311" y2="19.1489" gradientUnits="userSpaceOnUse">
<stop stop-color="#78CBEE"/>
<stop offset="0.035314" stop-color="#73C3E9"/>
<stop offset="0.2552" stop-color="#5797CC"/>
<stop offset="0.4674" stop-color="#4175B6"/>
<stop offset="0.6674" stop-color="#325CA6"/>
<stop offset="0.8502" stop-color="#284D9C"/>
<stop offset="1" stop-color="#254899"/>
</linearGradient>
<linearGradient id="paint4_linear_33_255" x1="0.693481" y1="47.5822" x2="67.2312" y2="47.5822" gradientUnits="userSpaceOnUse">
<stop stop-color="#78CBEE"/>
<stop offset="0.035314" stop-color="#73C3E9"/>
<stop offset="0.2552" stop-color="#5797CC"/>
<stop offset="0.4674" stop-color="#4175B6"/>
<stop offset="0.6674" stop-color="#325CA6"/>
<stop offset="0.8502" stop-color="#284D9C"/>
<stop offset="1" stop-color="#254899"/>
</linearGradient>
<linearGradient id="paint5_linear_33_255" x1="0.693481" y1="42.1664" x2="67.0378" y2="42.1664" gradientUnits="userSpaceOnUse">
<stop stop-color="#78CBEE"/>
<stop offset="0.035314" stop-color="#73C3E9"/>
<stop offset="0.2552" stop-color="#5797CC"/>
<stop offset="0.4674" stop-color="#4175B6"/>
<stop offset="0.6674" stop-color="#325CA6"/>
<stop offset="0.8502" stop-color="#284D9C"/>
<stop offset="1" stop-color="#254899"/>
</linearGradient>
<linearGradient id="paint6_linear_33_255" x1="45.4766" y1="19.1756" x2="54.2822" y2="19.1756" gradientUnits="userSpaceOnUse">
<stop stop-color="#78CBEE"/>
<stop offset="0.035314" stop-color="#73C3E9"/>
<stop offset="0.2552" stop-color="#5797CC"/>
<stop offset="0.4674" stop-color="#4175B6"/>
<stop offset="0.6674" stop-color="#325CA6"/>
<stop offset="0.8502" stop-color="#284D9C"/>
<stop offset="1" stop-color="#254899"/>
</linearGradient>
<linearGradient id="paint7_linear_33_255" x1="12.6349" y1="19.1756" x2="21.4405" y2="19.1756" gradientUnits="userSpaceOnUse">
<stop stop-color="#78CBEE"/>
<stop offset="0.035314" stop-color="#73C3E9"/>
<stop offset="0.2552" stop-color="#5797CC"/>
<stop offset="0.4674" stop-color="#4175B6"/>
<stop offset="0.6674" stop-color="#325CA6"/>
<stop offset="0.8502" stop-color="#284D9C"/>
<stop offset="1" stop-color="#254899"/>
</linearGradient>
<clipPath id="clip0_33_255">
<rect width="185.493" height="50" fill="white" transform="translate(0.5)"/>
</clipPath>
</defs>
</svg>
