<svg width="336" height="11" viewBox="0 0 336 11" fill="none" xmlns="http://www.w3.org/2000/svg">
<path fill-rule="evenodd" clip-rule="evenodd" d="M193.074 1.84701C192.605 1.47276 192.084 1.19098 191.526 1.01047C190.97 0.825546 190.426 0.730885 189.91 0.730885C188.206 0.730885 186.64 1.12934 185.257 1.91525C183.881 2.69676 182.528 3.55531 181.236 4.4667C179.945 5.37809 178.592 6.22784 177.22 6.99394C175.877 7.74462 174.389 8.12547 172.799 8.12547C172.279 8.12547 171.67 8.03741 170.995 7.8657C170.479 7.73141 170.001 7.50907 169.571 7.20307C170.345 6.76719 171.108 6.27847 171.844 5.74793C172.662 5.15575 173.447 4.53495 174.177 3.90094C174.783 4.12328 175.372 4.31921 175.93 4.48872C176.539 4.66923 177.181 4.76169 177.837 4.76169C178.55 4.76169 179.286 4.60759 180.023 4.30159C181.039 3.87892 181.253 3.05119 181.253 2.43259C181.253 1.94387 181.094 1.27904 180.334 0.884984C179.774 0.601001 179.297 0.462311 178.872 0.462311C178.014 0.462311 177.128 0.66264 176.237 1.0611C175.405 1.43094 174.565 1.91085 173.738 2.48542C173.233 2.26748 172.687 2.06935 172.115 1.89764C171.513 1.71492 170.922 1.62246 170.356 1.62246C169.313 1.62246 168.501 1.93066 167.941 2.54046C167.373 3.15685 167.086 3.90094 167.086 4.75069C167.086 5.49917 167.256 6.14639 167.591 6.68133C167.079 6.90808 166.555 7.11281 166.032 7.28893C165.538 7.45624 165.027 7.5531 164.511 7.58172C164.488 7.58058 164.465 7.57887 164.442 7.57717L164.419 7.57551C164.406 7.57452 164.392 7.57361 164.378 7.57291L164.316 7.56788C164.284 7.56515 164.253 7.56243 164.226 7.5597C163.805 7.51567 163.39 7.42542 162.989 7.29113C162.468 7.11502 161.944 6.91028 161.428 6.68354C161.765 6.14859 161.935 5.50137 161.935 4.75289C161.935 3.90314 161.648 3.15906 161.08 2.54266C160.521 1.93286 159.708 1.62466 158.665 1.62466C158.1 1.62466 157.509 1.71712 156.907 1.89984C156.334 2.07155 155.788 2.26968 155.282 2.48762C154.456 1.91305 153.616 1.43314 152.784 1.0633C151.893 0.664842 151.005 0.462311 150.147 0.462311C149.722 0.462311 149.245 0.601001 148.687 0.887186C147.927 1.28124 147.766 1.94607 147.766 2.43479C147.766 3.05339 147.98 3.88112 148.998 4.3038C149.735 4.60979 150.471 4.76389 151.185 4.76389C151.847 4.76389 152.491 4.65602 153.1 4.44028C153.662 4.24216 154.226 4.03302 154.777 3.81288C155.494 4.40286 156.264 5.02146 157.132 5.7017C157.867 6.26967 158.641 6.776 159.441 7.20968C159.013 7.51347 158.539 7.73361 158.026 7.8679C157.349 8.03961 156.74 8.12767 156.22 8.12767C154.63 8.12767 153.144 7.74682 151.801 6.99614C150.427 6.23004 149.077 5.38029 147.785 4.4689C146.495 3.55972 145.142 2.70116 143.764 1.91745C142.379 1.13154 140.815 0.733086 139.109 0.733086C138.595 0.733086 138.052 0.827747 137.495 1.01047C136.935 1.19098 136.414 1.47276 135.945 1.84701C135.477 2.22125 135.091 2.70116 134.8 3.27133C134.588 3.69225 134.451 4.1671 134.393 4.68904H10.476C10.337 4.5685 10.208 4.44454 10.0865 4.32775L10.0387 4.28177V4.28397C9.87031 4.41826 8.56196 4.60318 7.80805 4.69124H6.18496C3.91592 4.3192 2.78872 1.83159 2.50692 0.900384C2.20499 1.5388 1.82438 2.17941 1.52062 2.63731C2.12814 3.5487 2.96439 4.10126 3.72195 4.55695V4.64721H3.19129C2.50509 4.64721 1.52062 4.28397 0.911275 3.73582C0.831151 3.86408 0.731861 4.04972 0.623557 4.25221C0.425152 4.62315 0.196496 5.05065 0 5.28562C0.195915 5.52274 0.423039 5.9485 0.620985 6.31956C0.729947 6.52382 0.830068 6.71151 0.911275 6.84203C1.59565 6.29387 2.50509 5.92624 3.19129 5.92624H3.72195V6.0187C2.96439 6.47439 2.12814 7.02034 1.52062 8.0286C1.82438 8.39403 2.20316 9.03024 2.43373 9.67306C2.73382 8.66701 4.1044 5.92624 6.83822 5.92624H7.21883C7.44757 5.92624 9.73673 6.10675 10.0387 6.29387C10.1814 6.15518 10.3351 6.0187 10.5034 5.88441H134.406C134.474 6.33412 134.617 6.79176 134.835 7.2515C135.148 7.91193 135.592 8.49531 136.158 8.98402C136.714 9.47274 137.354 9.89101 138.061 10.2234C138.78 10.5624 139.581 10.7342 140.441 10.7342C141.622 10.7342 142.551 10.4458 143.206 9.8778C143.885 9.29002 144.229 8.52613 144.229 7.60373C144.229 6.37754 143.794 5.42872 142.935 4.78151C142.11 4.1607 141.17 3.8459 140.145 3.8459C138.719 3.8459 137.777 4.44249 137.342 5.61805L137.698 5.94826C137.922 5.73252 138.224 5.53659 138.595 5.36929C138.963 5.20198 139.334 5.11832 139.7 5.11832C140.502 5.11832 141.329 5.34947 142.16 5.80737C142.941 6.23665 143.322 6.76719 143.322 7.42542C143.322 8.15849 143.078 8.69344 142.58 9.06107C142.053 9.44632 141.384 9.64225 140.59 9.64225C140.02 9.64225 139.42 9.52557 138.805 9.29883C138.192 9.07428 137.614 8.73967 137.091 8.31039C136.568 7.88111 136.136 7.4078 135.81 6.89707C135.493 6.41276 135.342 5.88662 135.342 5.28783C135.342 4.53054 135.594 3.88332 136.116 3.30875C136.637 2.73638 137.446 2.44579 138.515 2.44579C140.008 2.44579 141.422 2.78261 142.723 3.44964C144.05 4.12988 145.417 4.89378 146.784 5.71711C148.163 6.54485 149.629 7.31314 151.141 7.99779C152.659 8.68903 154.368 9.03906 156.22 9.03906C156.925 9.03906 157.679 8.93339 158.46 8.72426C159.209 8.51952 159.887 8.15849 160.478 7.65216C161.58 8.1783 162.665 8.4865 163.708 8.57016V8.58116L164.008 8.58777L164.014 8.58794C164.079 8.59008 164.144 8.59217 164.208 8.59217C164.257 8.59331 164.31 8.59504 164.363 8.59675C164.412 8.59834 164.46 8.59991 164.504 8.60098H164.554C164.607 8.60098 164.665 8.59877 164.729 8.59217C165.952 8.59217 167.234 8.27517 168.543 7.64996C169.134 8.15629 169.813 8.51732 170.561 8.72205C171.342 8.93119 172.094 9.03686 172.799 9.03686C174.651 9.03686 176.36 8.68683 177.879 7.99558C179.39 7.31094 180.856 6.54264 182.236 5.71271C183.601 4.88938 184.968 4.12768 186.296 3.44524C187.597 2.78041 189.012 2.44139 190.505 2.44139C191.575 2.44139 192.382 2.73198 192.904 3.30435C193.425 3.87892 193.68 4.52614 193.68 5.28343C193.68 5.87121 193.522 6.41276 193.209 6.89267C192.884 7.399 192.454 7.87451 191.928 8.30378C191.405 8.73306 190.829 9.06768 190.212 9.29222C189.599 9.52117 188.999 9.63564 188.43 9.63564C187.636 9.63564 186.966 9.43972 186.439 9.05447C185.939 8.68683 185.696 8.15189 185.696 7.41881C185.696 6.75838 186.076 6.23004 186.858 5.80076C187.689 5.34507 188.516 5.11172 189.317 5.11172C189.683 5.11172 190.055 5.19537 190.422 5.36268C190.796 5.53219 191.098 5.72592 191.319 5.94166L191.676 5.61144C191.242 4.43588 190.3 3.8393 188.874 3.8393C187.85 3.8393 186.911 4.1541 186.082 4.7749C185.226 5.42212 184.79 6.37093 184.79 7.59713C184.79 8.51952 185.134 9.28342 185.813 9.8712C186.466 10.4392 187.396 10.7276 188.578 10.7276C189.389 10.7276 190.175 10.5558 190.916 10.219C191.648 9.88661 192.304 9.47054 192.86 8.97962C193.427 8.4887 193.872 7.90533 194.185 7.2449C194.401 6.78713 194.543 6.33247 194.612 5.88661H324.748C324.887 6.00718 325.016 6.13119 325.137 6.24801L325.185 6.29388C325.412 6.11336 327.703 5.83818 327.93 5.83818H328.46C331.117 5.83818 332.411 8.67141 332.717 9.67526C333.019 9.03685 333.399 8.39624 333.703 7.93834C333.095 7.02695 332.259 6.47439 331.502 6.0187V5.92844H332.032C332.718 5.92844 333.703 6.29167 334.312 6.83983C334.392 6.71158 334.492 6.52597 334.6 6.3235C334.798 5.95254 335.027 5.52501 335.224 5.29003C335.028 5.0529 334.801 4.62711 334.603 4.25603C334.494 4.05179 334.393 3.86413 334.312 3.73362C333.628 4.28177 332.718 4.64941 332.032 4.64941H331.502V4.55695C332.259 4.10126 333.095 3.5553 333.703 2.54705C333.399 2.18162 333.019 1.5454 332.79 0.902587C332.49 1.90864 331.119 4.64941 328.385 4.64941H328.005C327.776 4.64941 325.487 4.46889 325.185 4.28177C325.042 4.42046 324.888 4.55695 324.72 4.69124H194.627C194.57 4.16583 194.433 3.68801 194.219 3.26472C193.928 2.69456 193.542 2.21464 193.074 1.8404V1.84701ZM177.002 2.02092C177.687 1.65328 178.342 1.46616 178.947 1.46616C179.99 1.46616 180.124 2.07816 180.124 2.6131C180.124 2.83324 180.064 3.15245 179.537 3.377C179.074 3.57292 178.503 3.67199 177.837 3.67199C177.311 3.67199 176.794 3.59934 176.298 3.45845C175.937 3.35498 175.599 3.24931 175.277 3.14144C175.855 2.70776 176.433 2.33132 177.004 2.02312L177.002 2.02092ZM152.723 3.45845C152.228 3.60154 151.71 3.67199 151.185 3.67199C150.518 3.67199 149.948 3.57292 149.483 3.377C148.956 3.15465 148.895 2.83545 148.895 2.6153C148.895 2.08256 149.029 1.46836 150.072 1.46836C150.678 1.46836 151.333 1.65548 152.015 2.02092C152.586 2.33132 153.164 2.70556 153.743 3.14144C153.421 3.24931 153.084 3.35498 152.722 3.45845H152.723ZM160.484 6.11777C159.712 5.67308 158.967 5.17996 158.272 4.65162C157.659 4.18492 157.016 3.72922 156.352 3.29334C156.711 3.15245 157.058 3.02917 157.39 2.93011C157.867 2.78701 158.372 2.71217 158.89 2.71217C159.514 2.71217 160.019 2.94111 160.394 3.39021C160.771 3.8459 160.956 4.31921 160.956 4.84094C160.956 5.36268 160.802 5.77215 160.486 6.11777H160.484ZM168.535 6.11777C168.221 5.77215 168.067 5.35167 168.067 4.84094C168.067 4.33021 168.25 3.8437 168.629 3.39021C169.007 2.93451 169.5 2.71217 170.131 2.71217C170.649 2.71217 171.154 2.78481 171.632 2.92791C171.963 3.02917 172.31 3.15025 172.669 3.29114C172.007 3.72702 171.363 4.18272 170.749 4.64942C170.05 5.18216 169.306 5.67528 168.535 6.11557V6.11777Z" fill="url(#paint0_linear_33_287)"/>
<defs>
<linearGradient id="paint0_linear_33_287" x1="0" y1="5.60148" x2="335.224" y2="5.60148" gradientUnits="userSpaceOnUse">
<stop stop-color="#78CBEE"/>
<stop offset="0.035314" stop-color="#73C3E9"/>
<stop offset="0.2552" stop-color="#5797CC"/>
<stop offset="0.4674" stop-color="#4175B6"/>
<stop offset="0.6674" stop-color="#325CA6"/>
<stop offset="0.8502" stop-color="#284D9C"/>
<stop offset="1" stop-color="#254899"/>
</linearGradient>
</defs>
</svg>
