<svg width="31" height="30" viewBox="0 0 31 30" fill="none" xmlns="http://www.w3.org/2000/svg">
<g clip-path="url(#clip0_9_1504)">
<path d="M15.9315 0.0800893C7.59511 0.090085 0.928004 6.79718 0.938 15.1636C0.947995 23.42 7.68508 30.0871 16.0115 30.0771C24.2479 30.0671 30.945 23.32 30.925 15.0336C30.915 6.77719 24.1879 0.0700936 15.9315 0.0800893ZM15.9115 24.4595C10.7837 24.4695 6.56556 20.2414 6.55556 15.1036C6.54557 9.92582 10.7438 5.70765 15.9215 5.69765C21.0793 5.68766 25.3074 9.90583 25.3174 15.0536C25.3174 20.2414 21.1093 24.4595 15.9115 24.4595Z" fill="white"/>
<path d="M19.54 17.3424C19.53 17.4124 19.5 17.4823 19.48 17.5623C19.3801 17.5723 19.2901 17.5723 19.1901 17.5723C17.0111 17.5723 14.832 17.5723 12.653 17.5823C12.4431 17.5823 12.3531 17.5323 12.3231 17.3124C12.1432 15.813 12.1332 14.3137 12.3331 12.8143C12.3431 12.7444 12.3731 12.6744 12.3931 12.5944C12.483 12.5844 12.563 12.5744 12.653 12.5744C14.842 12.5744 17.0311 12.5744 19.2201 12.5645C19.43 12.5645 19.52 12.6144 19.55 12.8343C19.7299 14.3437 19.7299 15.843 19.54 17.3424Z" fill="white"/>
<path d="M19.2501 11.3154H12.6229C12.9928 9.92599 13.4626 8.60656 14.5221 7.597C15.4617 6.69739 16.4713 6.72737 17.4009 7.64698C18.1805 8.41664 18.6303 9.38622 18.9802 10.4058C19.0801 10.7057 19.1501 10.9955 19.2501 11.3154Z" fill="white"/>
<path d="M19.2501 18.842C18.8502 20.3014 18.3604 21.6908 17.181 22.7004C16.3713 23.3901 15.4717 23.41 14.692 22.6804C14.2422 22.2505 13.8324 21.7408 13.5325 21.191C13.1427 20.4613 12.8828 19.6617 12.543 18.832H19.2501V18.842Z" fill="white"/>
<path d="M23.7281 17.3426C23.6981 17.4326 23.5782 17.5625 23.4982 17.5625C22.5986 17.5825 21.699 17.5725 20.7494 17.5725C20.9893 15.8933 20.9893 14.264 20.7494 12.5747H21.4191C22.0888 12.5747 22.7485 12.5847 23.4182 12.5747C23.5982 12.5747 23.6781 12.6247 23.7281 12.8046C24.1679 14.314 24.1779 15.8333 23.7281 17.3426Z" fill="white"/>
<path d="M11.1136 17.5723H10.0141C9.49435 17.5723 8.97457 17.5623 8.4548 17.5723C8.27488 17.5723 8.17492 17.5324 8.11494 17.3324C7.68513 15.8231 7.68513 14.3038 8.12494 12.7944C8.15493 12.7044 8.26488 12.5845 8.33485 12.5745C9.24446 12.5545 10.1541 12.5645 11.1036 12.5645C10.8737 14.2638 10.8737 15.9031 11.1136 17.5723Z" fill="white"/>
<path d="M12.8528 7.59668C12.1332 8.74618 11.6234 9.96565 11.3335 11.3051H8.74463C9.69422 9.56583 11.0436 8.33636 12.8528 7.59668Z" fill="white"/>
<path d="M23.1283 11.305H20.5795C20.3595 10.6453 20.1796 9.99558 19.9197 9.37585C19.6698 8.76612 19.33 8.18637 19.0101 7.55664C20.8193 8.3363 22.1688 9.56577 23.1283 11.305Z" fill="white"/>
<path d="M23.1283 18.8418C22.1688 20.591 20.8193 21.8205 19.0101 22.5602C19.7298 21.4107 20.2396 20.1812 20.5295 18.8418H23.1283Z" fill="white"/>
<path d="M12.8528 22.5602C11.0536 21.8305 9.6942 20.591 8.73462 18.8418H11.3335C11.6234 20.1712 12.1331 21.4107 12.8528 22.5602Z" fill="white"/>
</g>
<defs>
<clipPath id="clip0_9_1504">
<rect width="29.987" height="29.987" fill="white" transform="translate(0.947998)"/>
</clipPath>
</defs>
</svg>
