<svg width="375" height="500" viewBox="0 0 375 500" fill="none" xmlns="http://www.w3.org/2000/svg">
<path fill-rule="evenodd" clip-rule="evenodd" d="M-248 14.2278V103.549C-248 105.315 -247.243 107.333 -245.728 108.595L-210.635 139.883C-207.606 142.658 -207.606 147.2 -210.635 149.975L-245.728 179.497C-247.243 180.758 -248 182.777 -248 184.543V356.12C-248 357.886 -247.243 359.652 -245.98 360.914L-100.561 497.923C-99.2988 499.185 -97.5316 499.689 -96.0168 499.689H41.071C42.8383 499.689 44.6055 498.932 45.8678 497.671L184.47 360.662C185.733 359.4 187.5 358.643 189.267 358.643H194.569C196.336 358.643 198.103 359.4 199.618 360.662L328.88 497.166C330.142 498.428 331.909 499.185 333.929 499.185H472.532C474.299 499.185 476.066 498.428 477.328 497.418L620.98 360.409C622.243 359.148 623 357.381 623 355.615V184.038C623 182.525 622.495 180.758 621.233 179.497L593.967 149.218C591.695 146.695 591.695 142.91 593.967 140.387L621.485 108.343C622.495 107.081 623 105.567 623 104.053V13.7232C623 7.66756 615.679 4.89205 611.387 8.92915L479.853 140.135C477.328 142.658 477.328 146.948 479.853 149.471L574.275 244.09C576.799 246.613 576.799 250.903 574.275 253.678L402.599 417.686C399.822 420.209 395.53 420.209 393.005 417.433L236.73 250.903C235.468 249.641 234.963 248.127 234.963 246.361V239.296C234.963 237.53 235.721 235.764 236.983 234.502L326.355 149.471C329.132 146.948 329.132 142.658 326.608 140.135L191.539 2.36886C188.762 -0.406645 184.47 -0.406645 181.693 2.36886L48.6449 139.883C46.1203 142.658 46.1203 146.948 49.1498 149.471L147.106 234.502C148.621 235.764 149.378 237.53 149.378 239.549V246.361C149.378 248.127 148.621 249.894 147.358 251.155L-20.7826 420.461C-22.0449 421.723 -23.8122 422.48 -25.5794 422.48H-34.1632C-35.9304 422.48 -37.6977 421.723 -38.96 420.461L-203.061 251.155C-204.324 249.894 -204.829 248.38 -204.829 246.613V239.549C-204.829 237.782 -204.071 236.016 -202.809 234.755L-111.922 149.723C-109.145 147.2 -109.145 142.91 -111.67 140.387L-236.387 9.68611C-240.426 5.14437 -248 8.17219 -248 14.2278Z" fill="#78CBEE"/>
</svg>
