<svg width="30" height="30" viewBox="0 0 30 30" fill="none" xmlns="http://www.w3.org/2000/svg">
<g clip-path="url(#clip0_9_1487)">
<path d="M29.6382 18.0812C28.7086 22.6682 26.0337 26.0457 21.9275 28.2767C21.0508 28.751 20.1229 29.1236 19.1617 29.3873V18.3031H22.3603C22.5222 17.0536 22.6812 15.8221 22.8461 14.5517H19.1627C19.1627 13.5521 19.1207 12.5865 19.1767 11.625C19.2167 10.9123 19.6085 10.5254 20.3162 10.4175C20.853 10.3395 21.4047 10.3615 21.9495 10.3475C22.2783 10.3395 22.6082 10.3475 22.9391 10.3475V6.97098C22.2394 6.932 21.5467 6.86103 20.858 6.87102C20.1393 6.87102 19.4026 6.86403 18.7069 7.01496C16.6828 7.44777 15.3933 9.02609 15.2934 11.1452C15.2424 12.1577 15.2664 13.1743 15.2574 14.1879C15.2574 14.3028 15.2574 14.4168 15.2574 14.5637H12.0588V18.3241H15.2304V29.962C15.1948 29.9702 15.1588 29.9763 15.1224 29.98C15.0445 29.98 14.9675 29.98 14.8885 29.98C12.7235 29.957 10.6414 29.5322 8.69123 28.5806C4.05724 26.3309 1.23813 22.6722 0.233899 17.6044C0.124946 17.0516 0.0769666 16.4929 0 15.9291V14.0549C0.02299 13.863 0.0489788 13.6711 0.0699697 13.4792C0.422817 10.2396 1.66928 7.3818 3.85233 4.96885C6.16633 2.41096 9.03009 0.817646 12.4376 0.226902C12.9734 0.133942 13.5151 0.0749675 14.0549 0H15.9281C16.2849 0.0439809 16.6428 0.0809649 16.9976 0.130943C20.2162 0.586746 23.041 1.89518 25.353 4.17919C29.2543 8.03452 30.7277 12.7135 29.6382 18.0812Z" fill="white"/>
</g>
<defs>
<clipPath id="clip0_9_1487">
<rect width="29.987" height="29.983" fill="white"/>
</clipPath>
</defs>
</svg>
