<svg width="31" height="30" viewBox="0 0 31 30" fill="none" xmlns="http://www.w3.org/2000/svg">
<g clip-path="url(#clip0_9_1497)">
<path d="M30.7311 12.4244C29.8915 7.95635 27.5125 4.52784 23.6442 2.15886C21.655 0.929395 19.466 0.259686 17.127 0.0797635C17.047 0.0697678 16.9771 0.0497765 16.8971 0.0297852H15.0179C14.4781 0.0997548 13.9384 0.159729 13.3986 0.259686C9.94011 0.869421 7.04137 2.49872 4.71238 5.12758C2.5933 7.51654 1.39382 10.3153 1.04397 13.484C1.02398 13.6739 0.99399 13.8638 0.973999 14.0637V15.9329C1.05396 16.4927 1.10394 17.0524 1.2039 17.6022C1.81364 21.0107 3.43293 23.8695 6.01182 26.1785C8.28083 28.2076 10.9497 29.437 13.9684 29.8269C18.1066 30.3566 21.8749 29.3671 25.1735 26.7882C28.3721 24.2993 30.2313 21.0107 30.8211 17.0024C30.871 16.6526 30.911 16.2927 30.951 15.9329V14.0637C30.881 13.5139 30.8311 12.9642 30.7311 12.4244ZM23.4643 13.5039C21.8749 13.5039 20.4656 13.0042 19.1461 12.0446V12.4044C19.1561 14.3236 19.1661 16.2428 19.1661 18.1619C19.1661 20.6908 17.5468 22.7599 15.0979 23.3897C12.1791 24.1393 9.20043 22.2901 8.55072 19.3314C7.92099 16.4727 9.87014 13.6039 12.8089 13.0641C13.3986 12.9542 13.9884 12.9342 14.5981 13.0441V15.8029C14.2582 15.783 13.9184 15.733 13.5885 15.753C12.2591 15.8329 11.2595 16.9724 11.2795 18.3418C11.2995 19.6313 12.3891 20.7208 13.6885 20.7808C15.0179 20.8408 16.1874 19.8512 16.3174 18.5518C16.3373 18.3718 16.3473 18.1819 16.3473 18.002C16.3473 14.2936 16.3473 10.5752 16.3573 6.86682V6.47699H19.1061C19.406 9.06587 20.8554 10.4853 23.4643 10.7751V13.5039Z" fill="white"/>
</g>
<defs>
<clipPath id="clip0_9_1497">
<rect width="29.987" height="29.997" fill="white" transform="translate(0.973999)"/>
</clipPath>
</defs>
</svg>
