<svg width="31" height="31" viewBox="0 0 31 31" fill="none" xmlns="http://www.w3.org/2000/svg">
<g clip-path="url(#clip0_4_771)">
<path d="M27.4086 13.6934C25.8467 14.8137 23.6544 16.3036 22.6655 16.3036C22.4696 16.3036 22.4067 16.2445 22.361 16.189C21.9572 15.6912 22.0664 13.9458 22.6864 11.0033C22.7477 10.7118 22.594 10.4188 22.3207 10.3036C22.0474 10.1877 21.7299 10.2826 21.5642 10.529C19.4306 13.7103 18.4534 14.3776 18.0106 14.3776C17.3823 14.3776 16.7439 12.5706 16.1102 9.00613C16.0598 8.72169 15.8198 8.51438 15.5347 8.49788V8.49438C15.5286 8.49438 15.5229 8.49565 15.5169 8.49565C15.5109 8.49565 15.5042 8.49438 15.4985 8.49438V8.49788C15.2144 8.51438 14.975 8.72169 14.9236 9.00613C14.2893 12.5706 13.6502 14.3776 13.0226 14.3776C12.5794 14.3776 11.6029 13.7099 9.4696 10.529C9.3042 10.2826 8.98674 10.1877 8.71278 10.3036C8.43913 10.4188 8.28547 10.7118 8.34706 11.0033C8.96674 13.9458 9.0769 15.6912 8.67214 16.189C8.62738 16.2449 8.56357 16.3036 8.36801 16.3036C7.37913 16.3036 5.18674 14.8141 3.6242 13.6934C3.37722 13.516 3.03849 13.5449 2.8242 13.7598C2.6096 13.9737 2.58135 14.3125 2.75849 14.5598C6.33087 19.1287 5.65849 24.3725 5.65849 24.3725C5.64547 24.4452 5.63849 24.5195 5.63849 24.5976C5.63849 25.8858 7.4423 26.3957 9.01341 26.696C10.7445 27.0277 13.0245 27.2125 15.4471 27.2188V27.2195C15.4702 27.2195 15.4937 27.2195 15.5169 27.2188C15.5401 27.2195 15.5633 27.2195 15.5871 27.2195V27.2188C18.009 27.2122 20.2893 27.0274 22.0198 26.696C23.5912 26.3957 25.3953 25.8849 25.3953 24.5976C25.3953 24.5195 25.3883 24.4455 25.3753 24.3725C25.3753 24.3725 24.7033 19.1277 28.275 14.5598C28.4525 14.3128 28.4245 13.9737 28.2099 13.7598C27.9944 13.5455 27.6563 13.5163 27.4086 13.6934ZM15.5864 25.4414H15.5817C15.5594 25.4414 15.5382 25.4423 15.5163 25.4423C15.494 25.4423 15.4734 25.4414 15.4512 25.4414H15.4464C11.5966 25.4303 9.05151 24.9823 7.92833 24.5979C9.05151 24.2128 11.5966 23.7649 15.4464 23.7541H15.4556C15.4756 23.7541 15.4956 23.7541 15.516 23.7541C15.5363 23.7541 15.5553 23.7541 15.5763 23.7541H15.5858C19.4353 23.7649 21.9801 24.2128 23.1036 24.5979C21.9807 24.9823 19.4359 25.4303 15.5864 25.4414Z" fill="url(#paint0_linear_4_771)"/>
<path d="M15.5165 7.74259C16.5534 7.74259 17.394 6.90202 17.394 5.86513C17.394 4.82824 16.5534 3.98767 15.5165 3.98767C14.4796 3.98767 13.639 4.82824 13.639 5.86513C13.639 6.90202 14.4796 7.74259 15.5165 7.74259Z" fill="url(#paint1_linear_4_771)"/>
<path d="M7.59179 9.69774C8.45581 9.69774 9.15623 8.99731 9.15623 8.13329C9.15623 7.26927 8.45581 6.56885 7.59179 6.56885C6.72777 6.56885 6.02734 7.26927 6.02734 8.13329C6.02734 8.99731 6.72777 9.69774 7.59179 9.69774Z" fill="url(#paint2_linear_4_771)"/>
<path d="M23.311 9.69774C24.175 9.69774 24.8755 8.99731 24.8755 8.13329C24.8755 7.26927 24.175 6.56885 23.311 6.56885C22.447 6.56885 21.7466 7.26927 21.7466 8.13329C21.7466 8.99731 22.447 9.69774 23.311 9.69774Z" fill="url(#paint3_linear_4_771)"/>
<path d="M1.5546 13.6455C2.13704 13.6455 2.60921 13.1733 2.60921 12.5909C2.60921 12.0084 2.13704 11.5363 1.5546 11.5363C0.972162 11.5363 0.5 12.0084 0.5 12.5909C0.5 13.1733 0.972162 13.6455 1.5546 13.6455Z" fill="url(#paint4_linear_4_771)"/>
<path d="M29.4455 13.6455C30.0279 13.6455 30.5001 13.1733 30.5001 12.5909C30.5001 12.0084 30.0279 11.5363 29.4455 11.5363C28.863 11.5363 28.3909 12.0084 28.3909 12.5909C28.3909 13.1733 28.863 13.6455 29.4455 13.6455Z" fill="url(#paint5_linear_4_771)"/>
</g>
<defs>
<linearGradient id="paint0_linear_4_771" x1="3" y1="20.4877" x2="29.5" y2="28.9877" gradientUnits="userSpaceOnUse">
<stop stop-color="#B58E1E"/>
<stop offset="0.455" stop-color="#FFDE80"/>
<stop offset="1" stop-color="#826A25"/>
</linearGradient>
<linearGradient id="paint1_linear_4_771" x1="12.5" y1="3.48767" x2="18" y2="9.48767" gradientUnits="userSpaceOnUse">
<stop stop-color="#B58E1E"/>
<stop offset="0.455" stop-color="#FFDE80"/>
<stop offset="1" stop-color="#826A25"/>
</linearGradient>
<linearGradient id="paint2_linear_4_771" x1="4" y1="5.48761" x2="10.5" y2="10.9876" gradientUnits="userSpaceOnUse">
<stop stop-color="#B58E1E"/>
<stop offset="0.455" stop-color="#FFDE80"/>
<stop offset="1" stop-color="#826A25"/>
</linearGradient>
<linearGradient id="paint3_linear_4_771" x1="20" y1="4.98761" x2="25" y2="10.9876" gradientUnits="userSpaceOnUse">
<stop stop-color="#B58E1E"/>
<stop offset="0.455" stop-color="#FFDE80"/>
<stop offset="1" stop-color="#826A25"/>
</linearGradient>
<linearGradient id="paint4_linear_4_771" x1="-2.0535e-08" y1="11.9877" x2="3.16644" y2="13.9877" gradientUnits="userSpaceOnUse">
<stop stop-color="#B58E1E"/>
<stop offset="0.455" stop-color="#FFDE80"/>
<stop offset="1" stop-color="#826A25"/>
</linearGradient>
<linearGradient id="paint5_linear_4_771" x1="27.5" y1="10.4877" x2="30.5" y2="14.4877" gradientUnits="userSpaceOnUse">
<stop stop-color="#B58E1E"/>
<stop offset="0.455" stop-color="#FFDE80"/>
<stop offset="1" stop-color="#826A25"/>
</linearGradient>
<clipPath id="clip0_4_771">
<rect width="30" height="30" fill="white" transform="translate(0.5 0.987671)"/>
</clipPath>
</defs>
</svg>
