<svg width="31" height="30" viewBox="0 0 31 30" fill="none" xmlns="http://www.w3.org/2000/svg">
<g clip-path="url(#clip0_9_1500)">
<path d="M26.589 4.44507C24.176 1.94616 21.1843 0.527771 17.7278 0.108953C17.4479 0.0749675 17.17 0.036984 16.8902 0H15.017C14.4682 0.0759671 13.9174 0.134942 13.3707 0.2299C10.2071 0.780662 7.50023 2.21504 5.2592 4.49805C3.08692 6.67883 1.65354 9.48616 1.16097 12.5246C1.07501 13.0324 1.02403 13.5451 0.96106 14.0559V15.9301C1.03803 16.4889 1.091 17.0516 1.19396 17.6064C1.97562 21.7952 4.13368 25.0858 7.66815 27.4781C10.249 29.2223 13.1238 30.014 16.2344 29.985C23.0485 29.92 29.2008 24.9312 30.5792 18.2581C31.6707 12.9754 30.3413 8.32739 26.589 4.44507ZM23.3024 10.3295C23.0215 11.6949 22.7296 13.0583 22.4398 14.4218C21.9193 16.8714 21.3979 19.3213 20.8754 21.7716C20.6685 22.7421 20.1208 22.9561 19.3251 22.3713C18.2016 21.545 17.0781 20.7184 15.9546 19.8914C15.8916 19.8454 15.8266 19.8034 15.7467 19.7494L13.8925 21.5357C13.7055 21.7166 13.5036 21.8605 13.1928 21.8355C13.2217 21.3857 13.2497 20.9359 13.2797 20.4941C13.3297 19.7944 13.3947 19.0947 13.4237 18.395C13.4243 18.2798 13.4507 18.1662 13.5008 18.0624C13.551 17.9587 13.6236 17.8674 13.7135 17.7953C15.8253 15.8968 17.934 13.9943 20.0398 12.0878C20.1449 12.0009 20.2451 11.9081 20.3397 11.8099C20.3985 11.7287 20.4494 11.642 20.4916 11.551C20.3756 11.537 20.2487 11.488 20.1447 11.518C19.9986 11.5718 19.8604 11.6451 19.7339 11.7359C17.0351 13.4338 14.3363 15.1331 11.6374 16.8337C11.5479 16.8971 11.4442 16.9374 11.3354 16.9512C11.2267 16.965 11.1162 16.9517 11.0137 16.9127C9.92018 16.5598 8.82165 16.223 7.72613 15.8751C7.43825 15.7842 7.08541 15.7082 7.07141 15.3443C7.05742 14.9805 7.38827 14.8446 7.67115 14.7346C8.87063 14.2558 10.0861 13.794 11.2946 13.3272L21.9839 9.20601C22.3488 9.06507 22.7266 8.87815 23.0835 9.18502C23.4403 9.49189 23.3853 9.9257 23.3024 10.3295Z" fill="white"/>
</g>
<defs>
<clipPath id="clip0_9_1500">
<rect width="29.987" height="29.986" fill="white" transform="translate(0.96106)"/>
</clipPath>
</defs>
</svg>
